<svg xmlns="http://www.w3.org/2000/svg" xmlns:xlink="http://www.w3.org/1999/xlink" width="99.174" height="24" viewBox="0 0 99.174 24"><defs><clipPath id="a"><rect width="99.174" height="24" transform="translate(0.659)" fill="#fff"/></clipPath><linearGradient id="b" x1="0.5" x2="0.5" y2="1" gradientUnits="objectBoundingBox"><stop offset="0" stop-color="#fe0000"/><stop offset="1" stop-color="#ff6f00"/></linearGradient></defs><g transform="translate(-0.658)" clip-path="url(#a)"><path d="M8.065,9.331c4.4-1.518,5.152-5.471,4.59-9.106A.179.179,0,0,1,12.88.037C17.1,2.1,21.836,6.6,21.836,13.34A9.672,9.672,0,0,1,12,23.083,9.368,9.368,0,0,1,6.716,5.714a.166.166,0,0,1,.262.131A7.529,7.529,0,0,0,7.99,9.331Z" fill="url(#b)"/><path d="M34.239,18.98l.319-.375.993,3.148-.131.131A4.757,4.757,0,0,1,32.1,22.933h-.056a4.231,4.231,0,0,1-3.054-1.068,4.287,4.287,0,0,1-1.087-3.129V10.155H25.377V6.689h2.529V2.511h3.9V6.689h3.091v3.466h-3.11v7.738c0,.356.094,1.5,1.18,1.5a1.831,1.831,0,0,0,1.274-.431Zm2.061,3.6V6.708h3.9V22.577ZM38.23.225a2.342,2.342,0,1,1-2.342,2.361A2.384,2.384,0,0,1,38.23.225ZM50.67,6.314c3.373,0,5.227,1.836,5.227,5.19V22.558H52V12.441c-.075-1.8-.937-2.623-2.773-2.623a4.834,4.834,0,0,0-3.653,1.874V22.558h-3.9V6.726h3.9V8.412a7.414,7.414,0,0,1,5.1-2.061ZM68.863,8.356V.9h3.9V22.6h-3.9V20.947a6.427,6.427,0,0,1-4.628,2c-4.253,0-7.1-3.335-7.1-8.3,0-4.984,2.848-8.319,7.1-8.319a6.37,6.37,0,0,1,4.628,2.023Zm0,3.354a4.8,4.8,0,0,0-3.672-1.874c-2.417,0-4.028,1.93-4.028,4.815,0,2.867,1.611,4.8,4.028,4.8a4.649,4.649,0,0,0,3.672-1.836Zm13-5.377c4.609,0,7.813,3.56,7.813,8.619v1.068H77.894a4.354,4.354,0,0,0,4.553,3.654,6.213,6.213,0,0,0,4.141-1.611l.262-.225L88.7,20.5l-.187.169a9.106,9.106,0,0,1-6.389,2.286,7.963,7.963,0,0,1-8.3-8.319,8.019,8.019,0,0,1,8.056-8.3Zm-3.991,6.745h8a3.822,3.822,0,0,0-4.01-3.466A3.9,3.9,0,0,0,77.875,13.1ZM99.1,6.333h.281v3.935l-.337-.056A4.7,4.7,0,0,0,94.4,11.935V22.558H90.5V6.708h3.916V8.469A6.608,6.608,0,0,1,99.1,6.333Z" fill="#adadad"/></g></svg>